<svg xmlns="http://www.w3.org/2000/svg" xmlns:xlink="http://www.w3.org/1999/xlink" viewBox="0 0 471.63 455.21"><defs><style>.cls-1,.cls-4{fill:none;}.cls-2{fill:#3b54a4;}.cls-3{clip-path:url(#clip-path);}.cls-4{stroke:#f06724;stroke-miterlimit:10;}</style><clipPath id="clip-path"><circle class="cls-1" cx="227.61" cy="227.61" r="227.61"/></clipPath></defs><title>bg</title><g id="Layer_2" data-name="Layer 2"><g id="Layer_1-2" data-name="Layer 1"><circle class="cls-2" cx="227.61" cy="227.61" r="227.61"/><circle class="cls-1" cx="227.61" cy="227.61" r="227.61"/><g class="cls-3"><path class="cls-4" d="M256.9,180.52s10-130.9,139.44-136.59"/><path class="cls-4" d="M272,194.16s10-130.9,139.43-136.59"/><path class="cls-4" d="M287,207.8S297,76.9,426.45,71.21"/><path class="cls-4" d="M302.07,221.44S312,90.54,441.5,84.85"/><path class="cls-4" d="M317.12,235.08s10-130.9,139.44-136.59"/><path class="cls-4" d="M332.18,248.72s10-130.9,139.43-136.59"/><path class="cls-4" d="M100.69,5.09S231.32,18.07,234,147.64"/><path class="cls-4" d="M86.7,19.83s130.64,13,133.35,142.55"/><path class="cls-4" d="M72.72,34.57s130.63,13,133.34,142.54"/><path class="cls-4" d="M58.74,49.31s130.63,13,133.34,142.54"/><path class="cls-4" d="M44.75,64S175.39,77,178.09,206.59"/><path class="cls-4" d="M30.77,78.78s130.63,13,133.34,142.54"/><path class="cls-4" d="M214.83,271.19S217.33,402.44,89,420.39"/><path class="cls-4" d="M198.55,259s2.5,131.25-125.85,149.2"/><path class="cls-4" d="M182.27,246.88s2.5,131.26-125.86,149.2"/><path class="cls-4" d="M166,234.73S168.49,366,40.13,383.93"/><path class="cls-4" d="M149.7,222.58s2.51,131.25-125.85,149.2"/><path class="cls-4" d="M133.42,210.43s2.5,131.25-125.85,149.2"/><path class="cls-4" d="M387,431s-131.28-.52-146.26-129.25"/><path class="cls-4" d="M399.5,415s-131.28-.53-146.26-129.26"/><path class="cls-4" d="M412,399s-131.27-.52-146.26-129.26"/><path class="cls-4" d="M424.55,383s-131.28-.52-146.26-129.25"/><path class="cls-4" d="M437.07,367s-131.28-.53-146.26-129.26"/><path class="cls-4" d="M449.59,351s-131.27-.52-146.26-129.26"/></g></g></g></svg>