<svg xmlns="http://www.w3.org/2000/svg" xmlns:xlink="http://www.w3.org/1999/xlink" viewBox="0 0 570.66 421.35"><defs><style>.cls-1{fill:none;}.cls-2{clip-path:url(#clip-path);}.cls-3{fill:#b7b7b7;}</style><clipPath id="clip-path"><path class="cls-1" d="M497.08,176.27a97.59,97.59,0,0,1-120.34,94.81,124.85,124.85,0,1,1-177.93-99.19A97.52,97.52,0,1,1,371.87,82.75a97.59,97.59,0,0,1,125.21,93.52Z"/></clipPath></defs><title>dotbig</title><g id="Layer_2" data-name="Layer 2"><g id="Layer_1-2" data-name="Layer 1"><g class="cls-2"><circle class="cls-3" cx="6.37" cy="6.37" r="6.37"/><circle class="cls-3" cx="35.74" cy="6.37" r="6.37"/><circle class="cls-3" cx="65.1" cy="6.37" r="6.37"/><circle class="cls-3" cx="94.46" cy="6.37" r="6.37"/><circle class="cls-3" cx="123.83" cy="6.37" r="6.37"/><circle class="cls-3" cx="153.19" cy="6.37" r="6.37"/><circle class="cls-3" cx="182.56" cy="6.37" r="6.37"/><circle class="cls-3" cx="211.92" cy="6.37" r="6.37"/><circle class="cls-3" cx="241.29" cy="6.37" r="6.37"/><circle class="cls-3" cx="270.65" cy="6.37" r="6.37"/><circle class="cls-3" cx="300.01" cy="6.37" r="6.37"/><circle class="cls-3" cx="329.38" cy="6.37" r="6.37"/><circle class="cls-3" cx="358.74" cy="6.37" r="6.37"/><circle class="cls-3" cx="388.11" cy="6.37" r="6.37"/><circle class="cls-3" cx="417.47" cy="6.37" r="6.37"/><circle class="cls-3" cx="446.83" cy="6.37" r="6.37"/><circle class="cls-3" cx="476.2" cy="6.37" r="6.37"/><circle class="cls-3" cx="505.56" cy="6.37" r="6.37"/><circle class="cls-3" cx="534.93" cy="6.37" r="6.37"/><circle class="cls-3" cx="564.29" cy="6.37" r="6.37"/><circle class="cls-3" cx="6.37" cy="47.23" r="6.37"/><circle class="cls-3" cx="35.74" cy="47.23" r="6.37"/><circle class="cls-3" cx="65.1" cy="47.23" r="6.37"/><circle class="cls-3" cx="94.46" cy="47.23" r="6.37"/><circle class="cls-3" cx="123.83" cy="47.23" r="6.37"/><circle class="cls-3" cx="153.19" cy="47.23" r="6.37"/><circle class="cls-3" cx="182.56" cy="47.23" r="6.37"/><circle class="cls-3" cx="211.92" cy="47.23" r="6.37"/><circle class="cls-3" cx="241.29" cy="47.23" r="6.37"/><circle class="cls-3" cx="270.65" cy="47.23" r="6.37"/><circle class="cls-3" cx="300.01" cy="47.23" r="6.37"/><circle class="cls-3" cx="329.38" cy="47.23" r="6.37"/><circle class="cls-3" cx="358.74" cy="47.23" r="6.37"/><circle class="cls-3" cx="388.11" cy="47.23" r="6.37"/><circle class="cls-3" cx="417.47" cy="47.23" r="6.37"/><circle class="cls-3" cx="446.83" cy="47.23" r="6.37"/><circle class="cls-3" cx="476.2" cy="47.23" r="6.37"/><circle class="cls-3" cx="505.56" cy="47.23" r="6.37"/><circle class="cls-3" cx="534.93" cy="47.23" r="6.37"/><circle class="cls-3" cx="564.29" cy="47.23" r="6.37"/><circle class="cls-3" cx="6.37" cy="88.09" r="6.37"/><circle class="cls-3" cx="35.74" cy="88.09" r="6.37"/><circle class="cls-3" cx="65.1" cy="88.09" r="6.37"/><circle class="cls-3" cx="94.46" cy="88.09" r="6.37"/><circle class="cls-3" cx="123.83" cy="88.09" r="6.37"/><circle class="cls-3" cx="153.19" cy="88.09" r="6.37"/><circle class="cls-3" cx="182.56" cy="88.09" r="6.37"/><circle class="cls-3" cx="211.92" cy="88.09" r="6.37"/><circle class="cls-3" cx="241.29" cy="88.09" r="6.37"/><circle class="cls-3" cx="270.65" cy="88.09" r="6.37"/><circle class="cls-3" cx="300.01" cy="88.09" r="6.37"/><circle class="cls-3" cx="329.38" cy="88.09" r="6.37"/><circle class="cls-3" cx="358.74" cy="88.09" r="6.37"/><circle class="cls-3" cx="388.11" cy="88.09" r="6.37"/><circle class="cls-3" cx="417.47" cy="88.09" r="6.37"/><circle class="cls-3" cx="446.83" cy="88.09" r="6.37"/><circle class="cls-3" cx="476.2" cy="88.09" r="6.37"/><circle class="cls-3" cx="505.56" cy="88.09" r="6.37"/><circle class="cls-3" cx="534.93" cy="88.09" r="6.37"/><circle class="cls-3" cx="564.29" cy="88.09" r="6.37"/><circle class="cls-3" cx="6.37" cy="128.95" r="6.37"/><circle class="cls-3" cx="35.74" cy="128.95" r="6.37"/><circle class="cls-3" cx="65.1" cy="128.95" r="6.37"/><circle class="cls-3" cx="94.46" cy="128.95" r="6.37"/><circle class="cls-3" cx="123.83" cy="128.95" r="6.37"/><circle class="cls-3" cx="153.19" cy="128.95" r="6.37"/><circle class="cls-3" cx="182.56" cy="128.95" r="6.37"/><circle class="cls-3" cx="211.92" cy="128.95" r="6.37"/><circle class="cls-3" cx="241.29" cy="128.95" r="6.37"/><circle class="cls-3" cx="270.65" cy="128.95" r="6.37"/><circle class="cls-3" cx="300.01" cy="128.95" r="6.37"/><circle class="cls-3" cx="329.38" cy="128.95" r="6.37"/><circle class="cls-3" cx="358.74" cy="128.95" r="6.37"/><circle class="cls-3" cx="388.11" cy="128.95" r="6.37"/><circle class="cls-3" cx="417.47" cy="128.95" r="6.37"/><circle class="cls-3" cx="446.83" cy="128.95" r="6.37"/><circle class="cls-3" cx="476.2" cy="128.95" r="6.37"/><circle class="cls-3" cx="505.56" cy="128.95" r="6.37"/><circle class="cls-3" cx="534.93" cy="128.95" r="6.37"/><circle class="cls-3" cx="564.29" cy="128.95" r="6.37"/><circle class="cls-3" cx="6.37" cy="169.81" r="6.37"/><circle class="cls-3" cx="35.74" cy="169.81" r="6.37"/><circle class="cls-3" cx="65.1" cy="169.81" r="6.37"/><circle class="cls-3" cx="94.46" cy="169.81" r="6.37"/><circle class="cls-3" cx="123.83" cy="169.81" r="6.37"/><circle class="cls-3" cx="153.19" cy="169.81" r="6.37"/><circle class="cls-3" cx="182.56" cy="169.81" r="6.37"/><circle class="cls-3" cx="211.92" cy="169.81" r="6.37"/><circle class="cls-3" cx="241.29" cy="169.81" r="6.37"/><circle class="cls-3" cx="270.65" cy="169.81" r="6.37"/><circle class="cls-3" cx="300.01" cy="169.81" r="6.37"/><circle class="cls-3" cx="329.38" cy="169.81" r="6.37"/><circle class="cls-3" cx="358.74" cy="169.81" r="6.37"/><circle class="cls-3" cx="388.11" cy="169.81" r="6.37"/><circle class="cls-3" cx="417.47" cy="169.81" r="6.37"/><circle class="cls-3" cx="446.83" cy="169.81" r="6.37"/><circle class="cls-3" cx="476.2" cy="169.81" r="6.37"/><circle class="cls-3" cx="505.56" cy="169.81" r="6.37"/><circle class="cls-3" cx="534.93" cy="169.81" r="6.37"/><circle class="cls-3" cx="564.29" cy="169.81" r="6.37"/><circle class="cls-3" cx="6.37" cy="210.67" r="6.37"/><circle class="cls-3" cx="35.74" cy="210.67" r="6.37"/><circle class="cls-3" cx="65.1" cy="210.67" r="6.37"/><circle class="cls-3" cx="94.46" cy="210.67" r="6.37"/><circle class="cls-3" cx="123.83" cy="210.67" r="6.37"/><circle class="cls-3" cx="153.19" cy="210.67" r="6.37"/><circle class="cls-3" cx="182.56" cy="210.67" r="6.37"/><circle class="cls-3" cx="211.92" cy="210.67" r="6.37"/><circle class="cls-3" cx="241.29" cy="210.67" r="6.37"/><circle class="cls-3" cx="270.65" cy="210.67" r="6.37"/><circle class="cls-3" cx="300.01" cy="210.67" r="6.37"/><circle class="cls-3" cx="329.38" cy="210.67" r="6.37"/><circle class="cls-3" cx="358.74" cy="210.67" r="6.37"/><circle class="cls-3" cx="388.11" cy="210.67" r="6.37"/><circle class="cls-3" cx="417.47" cy="210.67" r="6.37"/><circle class="cls-3" cx="446.83" cy="210.67" r="6.37"/><circle class="cls-3" cx="476.2" cy="210.67" r="6.37"/><circle class="cls-3" cx="505.56" cy="210.67" r="6.37"/><circle class="cls-3" cx="534.93" cy="210.67" r="6.37"/><circle class="cls-3" cx="564.29" cy="210.67" r="6.37"/><circle class="cls-3" cx="6.37" cy="251.53" r="6.37"/><circle class="cls-3" cx="35.74" cy="251.53" r="6.37"/><circle class="cls-3" cx="65.1" cy="251.53" r="6.37"/><circle class="cls-3" cx="94.46" cy="251.53" r="6.37"/><circle class="cls-3" cx="123.83" cy="251.53" r="6.37"/><circle class="cls-3" cx="153.19" cy="251.53" r="6.37"/><circle class="cls-3" cx="182.56" cy="251.53" r="6.37"/><circle class="cls-3" cx="211.92" cy="251.53" r="6.37"/><circle class="cls-3" cx="241.29" cy="251.53" r="6.37"/><circle class="cls-3" cx="270.65" cy="251.53" r="6.37"/><circle class="cls-3" cx="300.01" cy="251.53" r="6.37"/><circle class="cls-3" cx="329.38" cy="251.53" r="6.37"/><circle class="cls-3" cx="358.74" cy="251.53" r="6.37"/><circle class="cls-3" cx="388.11" cy="251.53" r="6.37"/><circle class="cls-3" cx="417.47" cy="251.53" r="6.37"/><circle class="cls-3" cx="446.83" cy="251.53" r="6.37"/><circle class="cls-3" cx="476.2" cy="251.53" r="6.37"/><circle class="cls-3" cx="505.56" cy="251.53" r="6.37"/><circle class="cls-3" cx="534.93" cy="251.53" r="6.37"/><circle class="cls-3" cx="564.29" cy="251.53" r="6.37"/><circle class="cls-3" cx="6.37" cy="292.39" r="6.37"/><circle class="cls-3" cx="35.74" cy="292.39" r="6.37"/><circle class="cls-3" cx="65.1" cy="292.39" r="6.37"/><circle class="cls-3" cx="94.46" cy="292.39" r="6.37"/><circle class="cls-3" cx="123.83" cy="292.39" r="6.37"/><circle class="cls-3" cx="153.19" cy="292.39" r="6.37"/><circle class="cls-3" cx="182.56" cy="292.39" r="6.37"/><circle class="cls-3" cx="211.92" cy="292.39" r="6.37"/><circle class="cls-3" cx="241.29" cy="292.39" r="6.37"/><circle class="cls-3" cx="270.65" cy="292.39" r="6.37"/><circle class="cls-3" cx="300.01" cy="292.39" r="6.37"/><circle class="cls-3" cx="329.38" cy="292.39" r="6.37"/><circle class="cls-3" cx="358.74" cy="292.39" r="6.37"/><circle class="cls-3" cx="388.11" cy="292.39" r="6.37"/><circle class="cls-3" cx="417.47" cy="292.39" r="6.37"/><circle class="cls-3" cx="446.83" cy="292.39" r="6.37"/><circle class="cls-3" cx="476.2" cy="292.39" r="6.37"/><circle class="cls-3" cx="505.56" cy="292.39" r="6.37"/><circle class="cls-3" cx="534.93" cy="292.39" r="6.37"/><circle class="cls-3" cx="564.29" cy="292.39" r="6.37"/><circle class="cls-3" cx="6.37" cy="333.25" r="6.37"/><circle class="cls-3" cx="35.74" cy="333.25" r="6.37"/><circle class="cls-3" cx="65.1" cy="333.25" r="6.37"/><circle class="cls-3" cx="94.46" cy="333.25" r="6.37"/><circle class="cls-3" cx="123.83" cy="333.25" r="6.37"/><circle class="cls-3" cx="153.19" cy="333.25" r="6.37"/><circle class="cls-3" cx="182.56" cy="333.25" r="6.37"/><circle class="cls-3" cx="211.92" cy="333.25" r="6.37"/><circle class="cls-3" cx="241.29" cy="333.25" r="6.37"/><circle class="cls-3" cx="270.65" cy="333.25" r="6.37"/><circle class="cls-3" cx="300.01" cy="333.25" r="6.37"/><circle class="cls-3" cx="329.38" cy="333.25" r="6.37"/><circle class="cls-3" cx="358.74" cy="333.25" r="6.37"/><circle class="cls-3" cx="388.11" cy="333.25" r="6.37"/><circle class="cls-3" cx="417.47" cy="333.25" r="6.37"/><circle class="cls-3" cx="446.83" cy="333.25" r="6.37"/><circle class="cls-3" cx="476.2" cy="333.25" r="6.37"/><circle class="cls-3" cx="505.56" cy="333.25" r="6.37"/><circle class="cls-3" cx="534.93" cy="333.25" r="6.37"/><circle class="cls-3" cx="564.29" cy="333.25" r="6.37"/><circle class="cls-3" cx="6.37" cy="374.11" r="6.37"/><circle class="cls-3" cx="35.74" cy="374.11" r="6.37"/><circle class="cls-3" cx="65.1" cy="374.11" r="6.37"/><circle class="cls-3" cx="94.46" cy="374.11" r="6.37"/><circle class="cls-3" cx="123.83" cy="374.11" r="6.37"/><circle class="cls-3" cx="153.19" cy="374.11" r="6.37"/><circle class="cls-3" cx="182.56" cy="374.11" r="6.37"/><circle class="cls-3" cx="211.92" cy="374.11" r="6.37"/><circle class="cls-3" cx="241.29" cy="374.11" r="6.37"/><circle class="cls-3" cx="270.65" cy="374.11" r="6.37"/><circle class="cls-3" cx="300.01" cy="374.11" r="6.37"/><circle class="cls-3" cx="329.38" cy="374.11" r="6.37"/><circle class="cls-3" cx="358.74" cy="374.11" r="6.37"/><circle class="cls-3" cx="388.11" cy="374.11" r="6.37"/><circle class="cls-3" cx="417.47" cy="374.11" r="6.37"/><circle class="cls-3" cx="446.83" cy="374.11" r="6.37"/><circle class="cls-3" cx="476.2" cy="374.11" r="6.37"/><circle class="cls-3" cx="505.56" cy="374.11" r="6.37"/><circle class="cls-3" cx="534.93" cy="374.11" r="6.37"/><circle class="cls-3" cx="564.29" cy="374.11" r="6.37"/><circle class="cls-3" cx="6.37" cy="414.97" r="6.37"/><circle class="cls-3" cx="35.74" cy="414.97" r="6.37"/><circle class="cls-3" cx="65.1" cy="414.97" r="6.37"/><circle class="cls-3" cx="94.46" cy="414.97" r="6.37"/><circle class="cls-3" cx="123.83" cy="414.97" r="6.37"/><circle class="cls-3" cx="153.19" cy="414.97" r="6.37"/><circle class="cls-3" cx="182.56" cy="414.97" r="6.37"/><circle class="cls-3" cx="211.92" cy="414.97" r="6.37"/><circle class="cls-3" cx="241.29" cy="414.97" r="6.37"/><circle class="cls-3" cx="270.65" cy="414.97" r="6.37"/><circle class="cls-3" cx="300.01" cy="414.97" r="6.37"/><circle class="cls-3" cx="329.38" cy="414.97" r="6.37"/><circle class="cls-3" cx="358.74" cy="414.97" r="6.37"/><circle class="cls-3" cx="388.11" cy="414.97" r="6.37"/><circle class="cls-3" cx="417.47" cy="414.97" r="6.37"/><circle class="cls-3" cx="446.83" cy="414.97" r="6.37"/><circle class="cls-3" cx="476.2" cy="414.97" r="6.37"/><circle class="cls-3" cx="505.56" cy="414.97" r="6.37"/><circle class="cls-3" cx="534.93" cy="414.97" r="6.37"/><circle class="cls-3" cx="564.29" cy="414.97" r="6.37"/></g></g></g></svg>