<svg xmlns="http://www.w3.org/2000/svg" xmlns:xlink="http://www.w3.org/1999/xlink" viewBox="0 0 429.69 383.77"><defs><style>.cls-1{fill:none;}.cls-2{clip-path:url(#clip-path);}.cls-3{fill:#b5b5b6;}</style><clipPath id="clip-path"><path class="cls-1" d="M301,221.47a40.34,40.34,0,0,1-61.52,15,50.5,50.5,0,0,1-2,5.2,51.59,51.59,0,1,1-47.78-73A40.3,40.3,0,1,1,270,164.82a40.33,40.33,0,0,1,31,56.65Z"/></clipPath></defs><title>dotsmall</title><g id="Layer_2" data-name="Layer 2"><g id="Layer_1-2" data-name="Layer 1"><g class="cls-2"><circle class="cls-3" cx="109.74" cy="3.97" r="3.97"/><circle class="cls-3" cx="126.37" cy="11.57" r="3.97"/><circle class="cls-3" cx="143" cy="19.17" r="3.97"/><circle class="cls-3" cx="159.63" cy="26.77" r="3.97"/><circle class="cls-3" cx="176.26" cy="34.37" r="3.97"/><circle class="cls-3" cx="192.89" cy="41.97" r="3.97"/><circle class="cls-3" cx="209.52" cy="49.58" r="3.97"/><circle class="cls-3" cx="226.15" cy="57.18" r="3.97"/><circle class="cls-3" cx="242.78" cy="64.78" r="3.97"/><circle class="cls-3" cx="259.41" cy="72.38" r="3.97"/><circle class="cls-3" cx="276.05" cy="79.98" r="3.97"/><circle class="cls-3" cx="292.68" cy="87.58" r="3.97"/><circle class="cls-3" cx="309.31" cy="95.18" r="3.97"/><circle class="cls-3" cx="325.94" cy="102.78" r="3.97"/><circle class="cls-3" cx="342.57" cy="110.38" r="3.97"/><circle class="cls-3" cx="359.2" cy="117.98" r="3.97"/><circle class="cls-3" cx="375.83" cy="125.59" r="3.97"/><circle class="cls-3" cx="392.46" cy="133.19" r="3.97"/><circle class="cls-3" cx="409.09" cy="140.79" r="3.97"/><circle class="cls-3" cx="425.72" cy="148.39" r="3.97"/><circle class="cls-3" cx="99.16" cy="27.11" r="3.97"/><circle class="cls-3" cx="115.79" cy="34.71" r="3.97"/><circle class="cls-3" cx="132.42" cy="42.31" r="3.97"/><circle class="cls-3" cx="149.05" cy="49.91" r="3.97"/><circle class="cls-3" cx="165.68" cy="57.52" r="3.97"/><circle class="cls-3" cx="182.31" cy="65.12" r="3.97"/><circle class="cls-3" cx="198.95" cy="72.72" r="3.97"/><circle class="cls-3" cx="215.58" cy="80.32" r="3.97"/><circle class="cls-3" cx="232.21" cy="87.92" r="3.97"/><circle class="cls-3" cx="248.84" cy="95.52" r="3.97"/><circle class="cls-3" cx="265.47" cy="103.12" r="3.97"/><circle class="cls-3" cx="282.1" cy="110.72" r="3.97"/><circle class="cls-3" cx="298.73" cy="118.32" r="3.97"/><circle class="cls-3" cx="315.36" cy="125.92" r="3.97"/><circle class="cls-3" cx="331.99" cy="133.53" r="3.97"/><circle class="cls-3" cx="348.62" cy="141.13" r="3.97"/><circle class="cls-3" cx="365.25" cy="148.73" r="3.97"/><circle class="cls-3" cx="381.88" cy="156.33" r="3.97"/><circle class="cls-3" cx="398.51" cy="163.93" r="3.97"/><circle class="cls-3" cx="415.15" cy="171.53" r="3.97"/><circle class="cls-3" cx="88.58" cy="50.25" r="3.97"/><circle class="cls-3" cx="105.21" cy="57.85" r="3.97"/><circle class="cls-3" cx="121.85" cy="65.45" r="3.97"/><circle class="cls-3" cx="138.48" cy="73.06" r="3.97"/><circle class="cls-3" cx="155.11" cy="80.66" r="3.97"/><circle class="cls-3" cx="171.74" cy="88.26" r="3.97"/><circle class="cls-3" cx="188.37" cy="95.86" r="3.97"/><circle class="cls-3" cx="205" cy="103.46" r="3.97"/><circle class="cls-3" cx="221.63" cy="111.06" r="3.97"/><circle class="cls-3" cx="238.26" cy="118.66" r="3.97"/><circle class="cls-3" cx="254.89" cy="126.26" r="3.97"/><circle class="cls-3" cx="271.52" cy="133.86" r="3.97"/><circle class="cls-3" cx="288.15" cy="141.46" r="3.97"/><circle class="cls-3" cx="304.78" cy="149.07" r="3.97"/><circle class="cls-3" cx="321.41" cy="156.67" r="3.97"/><circle class="cls-3" cx="338.05" cy="164.27" r="3.97"/><circle class="cls-3" cx="354.68" cy="171.87" r="3.97"/><circle class="cls-3" cx="371.31" cy="179.47" r="3.97"/><circle class="cls-3" cx="387.94" cy="187.07" r="3.97"/><circle class="cls-3" cx="404.57" cy="194.67" r="3.97"/><circle class="cls-3" cx="78.01" cy="73.39" r="3.97"/><circle class="cls-3" cx="94.64" cy="81" r="3.97"/><circle class="cls-3" cx="111.27" cy="88.6" r="3.97"/><circle class="cls-3" cx="127.9" cy="96.2" r="3.97"/><circle class="cls-3" cx="144.53" cy="103.8" r="3.97"/><circle class="cls-3" cx="161.16" cy="111.4" r="3.97"/><circle class="cls-3" cx="177.79" cy="119" r="3.97"/><circle class="cls-3" cx="194.42" cy="126.6" r="3.97"/><circle class="cls-3" cx="211.05" cy="134.2" r="3.97"/><circle class="cls-3" cx="227.68" cy="141.8" r="3.97"/><circle class="cls-3" cx="244.31" cy="149.4" r="3.97"/><circle class="cls-3" cx="260.95" cy="157.01" r="3.97"/><circle class="cls-3" cx="277.58" cy="164.61" r="3.97"/><circle class="cls-3" cx="294.21" cy="172.21" r="3.97"/><circle class="cls-3" cx="310.84" cy="179.81" r="3.97"/><circle class="cls-3" cx="327.47" cy="187.41" r="3.97"/><circle class="cls-3" cx="344.1" cy="195.01" r="3.97"/><circle class="cls-3" cx="360.73" cy="202.61" r="3.97"/><circle class="cls-3" cx="377.36" cy="210.21" r="3.97"/><circle class="cls-3" cx="393.99" cy="217.81" r="3.97"/><circle class="cls-3" cx="67.43" cy="96.54" r="3.97"/><circle class="cls-3" cx="84.06" cy="104.14" r="3.97"/><circle class="cls-3" cx="100.69" cy="111.74" r="3.97"/><circle class="cls-3" cx="117.32" cy="119.34" r="3.97"/><circle class="cls-3" cx="133.95" cy="126.94" r="3.97"/><circle class="cls-3" cx="150.58" cy="134.54" r="3.97"/><circle class="cls-3" cx="167.21" cy="142.14" r="3.97"/><circle class="cls-3" cx="183.85" cy="149.74" r="3.97"/><circle class="cls-3" cx="200.48" cy="157.34" r="3.97"/><circle class="cls-3" cx="217.11" cy="164.95" r="3.97"/><circle class="cls-3" cx="233.74" cy="172.55" r="3.97"/><circle class="cls-3" cx="250.37" cy="180.15" r="3.97"/><circle class="cls-3" cx="267" cy="187.75" r="3.97"/><circle class="cls-3" cx="283.63" cy="195.35" r="3.97"/><circle class="cls-3" cx="300.26" cy="202.95" r="3.97"/><circle class="cls-3" cx="316.89" cy="210.55" r="3.97"/><circle class="cls-3" cx="333.52" cy="218.15" r="3.97"/><circle class="cls-3" cx="350.15" cy="225.75" r="3.97"/><circle class="cls-3" cx="366.78" cy="233.35" r="3.97"/><circle class="cls-3" cx="383.42" cy="240.96" r="3.97"/><circle class="cls-3" cx="56.85" cy="119.68" r="3.97"/><circle class="cls-3" cx="73.48" cy="127.28" r="3.97"/><circle class="cls-3" cx="90.11" cy="134.88" r="3.97"/><circle class="cls-3" cx="106.75" cy="142.48" r="3.97"/><circle class="cls-3" cx="123.38" cy="150.08" r="3.97"/><circle class="cls-3" cx="140.01" cy="157.68" r="3.97"/><circle class="cls-3" cx="156.64" cy="165.28" r="3.97"/><circle class="cls-3" cx="173.27" cy="172.88" r="3.97"/><circle class="cls-3" cx="189.9" cy="180.49" r="3.97"/><circle class="cls-3" cx="206.53" cy="188.09" r="3.97"/><circle class="cls-3" cx="223.16" cy="195.69" r="3.97"/><circle class="cls-3" cx="239.79" cy="203.29" r="3.97"/><circle class="cls-3" cx="256.42" cy="210.89" r="3.97"/><circle class="cls-3" cx="273.05" cy="218.49" r="3.97"/><circle class="cls-3" cx="289.68" cy="226.09" r="3.97"/><circle class="cls-3" cx="306.32" cy="233.69" r="3.97"/><circle class="cls-3" cx="322.95" cy="241.29" r="3.97"/><circle class="cls-3" cx="339.58" cy="248.9" r="3.97"/><circle class="cls-3" cx="356.21" cy="256.5" r="3.97"/><circle class="cls-3" cx="372.84" cy="264.1" r="3.97"/><circle class="cls-3" cx="46.28" cy="142.82" r="3.97"/><circle class="cls-3" cx="62.91" cy="150.42" r="3.97"/><circle class="cls-3" cx="79.54" cy="158.02" r="3.97"/><circle class="cls-3" cx="96.17" cy="165.62" r="3.97"/><circle class="cls-3" cx="112.8" cy="173.22" r="3.97"/><circle class="cls-3" cx="129.43" cy="180.82" r="3.97"/><circle class="cls-3" cx="146.06" cy="188.43" r="3.97"/><circle class="cls-3" cx="162.69" cy="196.03" r="3.97"/><circle class="cls-3" cx="179.32" cy="203.63" r="3.97"/><circle class="cls-3" cx="195.95" cy="211.23" r="3.97"/><circle class="cls-3" cx="212.58" cy="218.83" r="3.97"/><circle class="cls-3" cx="229.22" cy="226.43" r="3.97"/><circle class="cls-3" cx="245.85" cy="234.03" r="3.97"/><circle class="cls-3" cx="262.48" cy="241.63" r="3.97"/><circle class="cls-3" cx="279.11" cy="249.23" r="3.97"/><circle class="cls-3" cx="295.74" cy="256.83" r="3.97"/><circle class="cls-3" cx="312.37" cy="264.44" r="3.97"/><circle class="cls-3" cx="329" cy="272.04" r="3.97"/><circle class="cls-3" cx="345.63" cy="279.64" r="3.97"/><circle class="cls-3" cx="362.26" cy="287.24" r="3.97"/><circle class="cls-3" cx="35.7" cy="165.96" r="3.97"/><circle class="cls-3" cx="52.33" cy="173.56" r="3.97"/><circle class="cls-3" cx="68.96" cy="181.16" r="3.97"/><circle class="cls-3" cx="85.59" cy="188.76" r="3.97"/><circle class="cls-3" cx="102.22" cy="196.37" r="3.97"/><circle class="cls-3" cx="118.85" cy="203.97" r="3.97"/><circle class="cls-3" cx="135.48" cy="211.57" r="3.97"/><circle class="cls-3" cx="152.12" cy="219.17" r="3.97"/><circle class="cls-3" cx="168.75" cy="226.77" r="3.97"/><circle class="cls-3" cx="185.38" cy="234.37" r="3.97"/><circle class="cls-3" cx="202.01" cy="241.97" r="3.97"/><circle class="cls-3" cx="218.64" cy="249.57" r="3.97"/><circle class="cls-3" cx="235.27" cy="257.17" r="3.97"/><circle class="cls-3" cx="251.9" cy="264.77" r="3.97"/><circle class="cls-3" cx="268.53" cy="272.38" r="3.97"/><circle class="cls-3" cx="285.16" cy="279.98" r="3.97"/><circle class="cls-3" cx="301.79" cy="287.58" r="3.97"/><circle class="cls-3" cx="318.42" cy="295.18" r="3.97"/><circle class="cls-3" cx="335.05" cy="302.78" r="3.97"/><circle class="cls-3" cx="351.68" cy="310.38" r="3.97"/><circle class="cls-3" cx="25.12" cy="189.1" r="3.97"/><circle class="cls-3" cx="41.75" cy="196.7" r="3.97"/><circle class="cls-3" cx="58.38" cy="204.3" r="3.97"/><circle class="cls-3" cx="75.02" cy="211.91" r="3.97"/><circle class="cls-3" cx="91.65" cy="219.51" r="3.97"/><circle class="cls-3" cx="108.28" cy="227.11" r="3.97"/><circle class="cls-3" cx="124.91" cy="234.71" r="3.97"/><circle class="cls-3" cx="141.54" cy="242.31" r="3.97"/><circle class="cls-3" cx="158.17" cy="249.91" r="3.97"/><circle class="cls-3" cx="174.8" cy="257.51" r="3.97"/><circle class="cls-3" cx="191.43" cy="265.11" r="3.97"/><circle class="cls-3" cx="208.06" cy="272.71" r="3.97"/><circle class="cls-3" cx="224.69" cy="280.31" r="3.97"/><circle class="cls-3" cx="241.32" cy="287.92" r="3.97"/><circle class="cls-3" cx="257.95" cy="295.52" r="3.97"/><circle class="cls-3" cx="274.58" cy="303.12" r="3.97"/><circle class="cls-3" cx="291.22" cy="310.72" r="3.97"/><circle class="cls-3" cx="307.85" cy="318.32" r="3.97"/><circle class="cls-3" cx="324.48" cy="325.92" r="3.97"/><circle class="cls-3" cx="341.11" cy="333.52" r="3.97"/><circle class="cls-3" cx="14.55" cy="212.24" r="3.97"/><circle class="cls-3" cx="31.18" cy="219.85" r="3.97"/><circle class="cls-3" cx="47.81" cy="227.45" r="3.97"/><circle class="cls-3" cx="64.44" cy="235.05" r="3.97"/><circle class="cls-3" cx="81.07" cy="242.65" r="3.97"/><circle class="cls-3" cx="97.7" cy="250.25" r="3.97"/><circle class="cls-3" cx="114.33" cy="257.85" r="3.97"/><circle class="cls-3" cx="130.96" cy="265.45" r="3.97"/><circle class="cls-3" cx="147.59" cy="273.05" r="3.97"/><circle class="cls-3" cx="164.22" cy="280.65" r="3.97"/><circle class="cls-3" cx="180.85" cy="288.25" r="3.97"/><circle class="cls-3" cx="197.48" cy="295.86" r="3.97"/><circle class="cls-3" cx="214.12" cy="303.46" r="3.97"/><circle class="cls-3" cx="230.75" cy="311.06" r="3.97"/><circle class="cls-3" cx="247.38" cy="318.66" r="3.97"/><circle class="cls-3" cx="264.01" cy="326.26" r="3.97"/><circle class="cls-3" cx="280.64" cy="333.86" r="3.97"/><circle class="cls-3" cx="297.27" cy="341.46" r="3.97"/><circle class="cls-3" cx="313.9" cy="349.06" r="3.97"/><circle class="cls-3" cx="330.53" cy="356.66" r="3.97"/><circle class="cls-3" cx="3.97" cy="235.39" r="3.97"/><circle class="cls-3" cx="20.6" cy="242.99" r="3.97"/><circle class="cls-3" cx="37.23" cy="250.59" r="3.97"/><circle class="cls-3" cx="53.86" cy="258.19" r="3.97"/><circle class="cls-3" cx="70.49" cy="265.79" r="3.97"/><circle class="cls-3" cx="87.12" cy="273.39" r="3.97"/><circle class="cls-3" cx="103.75" cy="280.99" r="3.97"/><circle class="cls-3" cx="120.38" cy="288.59" r="3.97"/><circle class="cls-3" cx="137.02" cy="296.19" r="3.97"/><circle class="cls-3" cx="153.65" cy="303.8" r="3.97"/><circle class="cls-3" cx="170.28" cy="311.4" r="3.97"/><circle class="cls-3" cx="186.91" cy="319" r="3.97"/><circle class="cls-3" cx="203.54" cy="326.6" r="3.97"/><circle class="cls-3" cx="220.17" cy="334.2" r="3.97"/><circle class="cls-3" cx="236.8" cy="341.8" r="3.97"/><circle class="cls-3" cx="253.43" cy="349.4" r="3.97"/><circle class="cls-3" cx="270.06" cy="357" r="3.97"/><circle class="cls-3" cx="286.69" cy="364.6" r="3.97"/><circle class="cls-3" cx="303.32" cy="372.2" r="3.97"/><circle class="cls-3" cx="319.95" cy="379.81" r="3.97"/></g></g></g></svg>